<?xml version="1.0" encoding="utf-8"?>
<!-- Generator: Adobe Illustrator 18.0.0, SVG Export Plug-In . SVG Version: 6.00 Build 0)  -->
<!DOCTYPE svg PUBLIC "-//W3C//DTD SVG 1.1//EN" "http://www.w3.org/Graphics/SVG/1.1/DTD/svg11.dtd">
<svg version="1.1" id="Layer_1" xmlns="http://www.w3.org/2000/svg" xmlns:xlink="http://www.w3.org/1999/xlink" x="0px" y="0px"
	 viewBox="-594.9 667.6 500 174.2" style="enable-background:new -594.9 667.6 500 174.2;" xml:space="preserve">
<style type="text/css">
	.st0{fill:#FCA426;}
	.st1{fill:#E6951F;}
	.st2{fill:#3594E8;}
	.st3{fill:#FFFFFF;}
	.st4{fill:#2B2A29;}
	.st5{fill:#1E88E5;}
	.st6{fill:#1972BF;}
	.st7{fill:#0277BD;}
	.st8{opacity:7.000000e-002;fill:#231F20;}
	.st9{fill:#104666;}
</style>
<g id="Bird">
	<path class="st0" d="M-514.3,830.6c-6.9,0-12.9-1.2-16.5-3c-3.3,0.3-7.8,1.5-10.2,3.6c-2.4,2.4-3.3,7.2,0.3,8.4
		c2.4,0.6,1.2-0.9,3.9-3.9c-0.3,2.1,0.3,4.2,2.4,4.8c2.7,0.6,0.9-1.2,5.1-5.1c-1.2,2.4-0.9,5.1,1.8,6c2.4,0.6,0.6-1.2,4.8-5.1
		c4.2-3.6,7.8-3.6,8.4-4.2V830.6z"/>
	<path class="st1" d="M-514.3,830.7c6.9,0,12.9-1.2,16.5-3c3.3,0.3,7.8,1.5,10.2,3.6c2.4,2.4,3.3,7.2-0.3,8.4
		c-2.4,0.6-1.2-0.9-3.9-3.9c0.3,2.1-0.3,4.2-2.4,4.8c-2.7,0.6-0.9-1.2-5.1-5.1c1.2,2.4,0.9,5.1-1.8,6c-2.4,0.6-0.6-1.2-4.8-5.1
		c-4.2-3.6-7.8-3.6-8.4-4.2V830.7z"/>
	<path class="st2" d="M-440.5,777.5c0.9-3.6,1.2-7.2,1.2-11.1c0-12.9-5.4-24.9-14.7-34.9c-3.3-12.6-9.3-23.4-17.1-32.2
		c-0.6-0.6-1.8-3-1.8-6.3c0-6,0.6-12.6,0.6-12.6s-6,11.1-13.2,8.4c-5.1-1.8-0.3-9.6-0.3-9.6s-3,1.8-6.9,3.6c-3.9,1.8-8.4,3.9-11.4,3
		c-5.7-1.8,3-18.3,3-18.3s-19.2,16.8-22.8,16.8c-5.1,0.3-4.5-7.5-4.5-7.5s-5.7,6-8.7,7.5c-17.1,8.4-30.6,25.5-36.7,47.2
		c-9,9.6-14.7,21.6-14.7,34.9c0,3.6,0.3,7.2,1.2,10.8c-3-3.9-5.4-8.4-7.5-12.9c2.7,19.2,14.4,36.1,30.4,45.4l1.8-5.1
		c11.4,16.8,28.8,27.6,48.4,27.6c19.5,0,37-10.8,48.4-27.6l1.8,5.1c16.2-9.3,27.9-25.8,30.3-45.4
		C-434.7,769.1-437.4,773.3-440.5,777.5z"/>
	<path class="st3" d="M-527.3,755.9c0-4.5-0.3-9.6-0.9-15.9c-0.9-11.4-3-24.3-13.5-24.3c-12,0-23.7,14.1-23.7,31.3
		c0,9.6,3.3,18.3,8.4,24C-547.7,763.4-537.8,758.3-527.3,755.9z"/>
	<path class="st4" d="M-557.3,749.6c0,6.9,2.4,12.9,6,17.1c7.5-5.1,15.6-9,24-10.8c0-4.5-0.3-9.6-0.9-15.9c-0.3-2.4-0.3-5.1-0.9-7.5
		c-3-3.6-6.9-5.7-11.4-5.7C-549.5,726.8-557.3,737-557.3,749.6z"/>
	<path class="st3" d="M-471.6,770.9c5.1-5.7,8.4-14.4,8.4-24c0-17.1-11.7-31.3-23.7-31.3c-10.5,0-12.6,12.9-13.5,24.3
		c-0.6,6.3-0.9,11.4-0.9,15.9C-490.8,758.3-480.9,763.4-471.6,770.9z"/>
	<path class="st4" d="M-488.1,726.8c-4.5,0-8.4,2.1-11.4,5.7c-0.6,2.4-0.6,5.1-0.9,7.5c-0.6,6.3-0.9,11.4-0.9,15.9
		c8.4,1.8,16.5,5.7,24,10.8c3.6-4.2,6-10.2,6-17.1C-471.3,737-479.1,726.8-488.1,726.8z"/>
	<ellipse class="st3" cx="-485.4" cy="738.2" rx="5.1" ry="5.4"/>
	<ellipse class="st3" cx="-536.9" cy="738.2" rx="5.1" ry="5.4"/>
	<path class="st3" d="M-487.9,801.6c0,0,0-6-3.9-9c-6.9-5.4-19.6-3.3-22.9,2.4c-12-6.9-21.7-1.2-24.7,3.6c-2.1,3.3-2.1,8.7-2.1,8.7
		s-7.5-1.2-9.6,5.1c-1.8,6,6.3,10.5,10.2,12.9c5.4,3,14.8,6.9,26.2,6.9c12.6,0,22.6-4.5,27.1-7.2c7.2-4.2,11.1-9,10.2-15.4
		C-478.2,801-486.4,801.6-487.9,801.6z M-514.1,826.6L-514.1,826.6L-514.1,826.6L-514.1,826.6L-514.1,826.6z"/>
	<path class="st0" d="M-507.8,755.9c-2.7-3-6.6-3-6.6-3l0,0c0,0-3.9,0-6.6,3c-3.6,2.4-6.9,5.7-2.7,9.9c0.3,0.3,0.3,0.3,0.6,0.6
		c1.2,7.5,5.7,14.7,8.7,18.9l0,0c3-4.2,7.5-11.4,8.7-18.9c0-0.3,0.3-0.3,0.6-0.6C-500.9,761.6-503.9,758.3-507.8,755.9z"/>
	<ellipse class="st4" cx="-518.9" cy="762.2" rx="1.2" ry="2.7"/>
	<ellipse class="st4" cx="-509.6" cy="762.2" rx="1.2" ry="2.7"/>
	<path class="st4" d="M-514.4,823l9.2-22.9c0.3-0.8,0.8-1.2,1.5-1.2c0.7,0,1.2,0.2,1.5,0.5c0.3,0.3,0.5,0.7,0.5,1.1
		c0,0.4,0,0.7-0.1,0.9l-9.7,23.4c-0.5,1.2-1.4,1.8-2.4,1.8h-0.9c-1.1,0-1.9-0.6-2.4-1.8l-3.7-9h3.7L-514.4,823z"/>
	<path class="st5" d="M-523.5,800.2L-523.5,800.2c-0.3-0.8-1.1-1.3-2-1.3c0,0,0,0,0,0h0h-4.8l0,0h0c-1,0-1.7,0.8-1.7,1.7
		s0.8,1.7,1.7,1.7c0,0,0,0,0,0l3.9,0l2,4.8l2.1,5.2h3.7L-523.5,800.2z"/>
	<path class="st6" d="M-451.3,758.3c0-1.2-0.3-4.2-0.3-4.5c0,0.6,0,1.2,0,2.1c0,18.6-5.4,35.5-14.4,48.7l1.8,5.1
		C-454.9,796.2-449.8,777.8-451.3,758.3z"/>
	<path class="st7" d="M-577.8,758c0-1.2,0.3-4.2,0.3-4.5c0,0.6,0,1.2,0,2.1c0,18.6,5.4,35.5,14.7,49l-1.8,5.1
		C-573.8,795.9-579,777.5-577.8,758z"/>
	<path class="st7" d="M-487.3,704.2c-0.3,0-0.9-0.3-1.2-0.3l0,0c-1.8-0.6-2.7-2.4-2.4-4.2c0.6-1.8,2.4-2.7,4.2-2.4
		c5.7,1.5,9.3,7.5,7.8,13.2C-480.6,707.8-483.7,705.4-487.3,704.2z"/>
	<path class="st7" d="M-550.1,710.8c-1.2-5.7,2.1-11.7,7.8-13.2c1.8-0.6,3.6,0.6,4.2,2.4c0.6,1.8-0.6,3.6-2.4,4.2l0,0
		c-0.3,0-0.9,0.3-1.2,0.3C-545.3,705.4-548.3,707.8-550.1,710.8z"/>
	<path class="st8" d="M-439.3,766.4c0-12.9-5.4-24.9-14.7-34.9c-3.3-12.6-9.3-23.4-17.1-32.2c-0.6-0.6-1.8-3-1.8-6.3
		c0-6,0.6-12.6,0.6-12.6s-6,11.1-13.2,8.4c-5.1-1.8-0.3-9.6-0.3-9.6s-3,1.8-6.9,3.6c-3.9,1.8-8.4,3.9-11.4,3c-5.7-1.8,3-18.3,3-18.3
		s-6.9,6-13.2,10.9v153.8c19.5,0,37-10.8,48.4-27.6l1.8,5.1c16.2-9.3,27.9-25.8,30.3-45.4c-0.9,4.8-3.6,9-6.6,13.2
		C-439.6,773.9-439.3,770.3-439.3,766.4z"/>
</g>
<g>
	<path class="st3" d="M-107.3,757.8c4-1.4,6.9-3.6,8.9-6.6c1.9-3,2.9-6.2,2.9-9.7c0-5.4-1.9-9.7-5.8-13c-4.2-3.5-10.4-5-18.6-5h-21
		c-1.1,0-2.1,0.4-2.9,1.2c-0.8,0.8-1.2,1.8-1.2,2.9c0,0,0,46.3,0,54.2c0,2.5,2,4.4,4.5,4.4c2.5,0,4.5-2,4.5-4.5c0-0.1,0-19.3,0-19.3
		h17.7c3.4,0,6.2-0.1,8,1.2c1.9,1.3,3.3,3.2,4.4,5.4c1.1,2.3,1.6,5.8,1.6,10.7v2.4c0,1.2,0.4,2.2,1.1,2.9c0.7,0.7,1.7,1.1,2.9,1.1
		c1.2,0,2.2-0.4,3-1.2c0.8-0.8,1.2-1.7,1.2-2.9v-3.8c0-4-0.6-7.7-1.9-11.1C-99.8,762-103,758.9-107.3,757.8z M-120.5,753.2h-15.4
		v-21h15c5.9,0,10.2,0.9,13,2.8c2.3,1.7,3.4,4.1,3.4,7.4c0,3.5-1.5,6.2-4.4,8C-111.8,752.3-115.7,753.2-120.5,753.2z"/>
	<path class="st3" d="M-161.5,723.4c1.1,0,2,0.4,2.7,1.1c0.7,0.7,1.1,1.6,1.1,2.7c0,1.1-0.4,1.9-1.1,2.7c-0.7,0.7-1.6,1.1-2.7,1.1
		h-18v51.3c0,1.1-0.4,2.1-1.2,2.8c-0.8,0.8-1.8,1.2-2.9,1.2s-2.1-0.4-2.8-1.2c-0.8-0.8-1.2-1.7-1.2-2.8v-51.3h-18.1
		c-1.1,0-1.9-0.4-2.7-1.1c-0.7-0.7-1.1-1.6-1.1-2.7c0-1.1,0.4-2,1.1-2.7c0.7-0.7,1.6-1.1,2.7-1.1H-161.5z"/>
	<path class="st3" d="M-220,778.1c1.1,0,2.1,0.4,2.9,1.2c0.8,0.8,1.2,1.8,1.2,2.9c0,1.1-0.4,2.1-1.2,2.8c-0.8,0.8-1.8,1.1-2.9,1.1
		h-31.4c-1.5,0-2.8-0.5-3.9-1.6c-1.1-1.1-1.6-2.4-1.6-3.9v-53c0-1.1,0.4-2.1,1.2-2.9c0.8-0.8,1.7-1.2,2.8-1.2c1.1,0,2.1,0.4,2.9,1.2
		c0.8,0.8,1.2,1.8,1.2,2.9v50.6H-220z"/>
	<path class="st3" d="M-281.8,723.4c1.1,0,2.1,0.4,2.9,1.2c0.8,0.8,1.2,1.8,1.2,2.9v34.4c0,7.7-2.8,13.8-8.3,18.2
		c-4.8,3.9-10.5,5.8-17.1,5.8c-6.7,0-12.5-2-17.2-5.8c-5.5-4.4-8.2-10.5-8.2-18.2v-34.4c0-1.1,0.4-2.1,1.2-2.9
		c0.8-0.8,1.7-1.2,2.8-1.2c1.1,0,2.1,0.4,2.9,1.2c0.8,0.8,1.2,1.8,1.2,2.9v34.7c0,5.3,1.8,9.4,5.4,12.4c3.3,2.7,7.3,4.1,12,4.1
		c4.7,0,8.7-1.4,12-4.1c3.6-3,5.4-7.1,5.4-12.4v-34.7c0-1.1,0.4-2.1,1.2-2.9C-283.9,723.8-283,723.4-281.8,723.4z"/>
	<path class="st3" d="M-371.5,778l20.8-51.9c0.8-1.8,1.9-2.7,3.4-2.7c1.5,0,2.6,0.4,3.3,1.2c0.7,0.8,1.1,1.6,1.1,2.5
		c0,0.9-0.1,1.5-0.3,1.9L-365,782c-1.2,2.7-3.1,4.1-5.5,4.1h-1.9c-2.4,0-4.3-1.4-5.5-4.1l-8.4-20.5h5.2h3.1L-371.5,778z"/>
	<path class="st9" d="M-392.2,726.4L-392.2,726.4c-0.7-1.8-2.4-3-4.4-3c0,0,0,0-0.1,0l0,0h-10.9l0,0c0,0,0,0,0,0
		c-2.2,0-3.9,1.8-3.9,3.9s1.8,3.9,3.9,3.9c0,0,0,0,0,0l8.8,0l4.5,10.8l4.8,11.9h8.5L-392.2,726.4z"/>
</g>
</svg>
