<?xml version="1.0" encoding="utf-8"?>
<!-- Generator: Adobe Illustrator 19.0.0, SVG Export Plug-In . SVG Version: 6.00 Build 0)  -->
<svg version="1.1" id="Layer_1" xmlns="http://www.w3.org/2000/svg" xmlns:xlink="http://www.w3.org/1999/xlink" x="0px" y="0px"
	 viewBox="-148 401.9 34 30.9" style="enable-background:new -148 401.9 34 30.9;" xml:space="preserve">
<style type="text/css">
	.st0{fill:#2B2A29;}
</style>
<path class="st0" d="M-116.4,401.9c-0.7,0-1.3,0.4-1.6,1.3l-10.2,25.6l-3.3-8h-1.5h-2.6l4.2,10.1c0.5,1.3,1.5,2,2.7,2h0.9
	c1.3,0,2-0.7,2.7-2l10.8-26.1c0-0.2,0.2-0.5,0.2-0.9c0-0.4-0.2-0.9-0.5-1.3C-115.1,402-115.6,401.9-116.4,401.9z"/>
<path class="st0" d="M-138.5,403.3L-138.5,403.3c-0.4-0.9-1.3-1.5-2.2-1.5l0,0l0,0h-5.3l0,0l0,0c-1.1,0-2,0.9-2,2c0,1.1,0.9,2,2,2
	l0,0h4.4l2.2,5.3l2.4,5.8h4.2L-138.5,403.3z"/>
</svg>
