<?xml version="1.0" encoding="utf-8"?>
<!-- Generator: Adobe Illustrator 18.0.0, SVG Export Plug-In . SVG Version: 6.00 Build 0)  -->
<!DOCTYPE svg PUBLIC "-//W3C//DTD SVG 1.1//EN" "http://www.w3.org/Graphics/SVG/1.1/DTD/svg11.dtd">
<svg version="1.1" id="Layer_1" xmlns="http://www.w3.org/2000/svg" xmlns:xlink="http://www.w3.org/1999/xlink" x="0px" y="0px"
	 viewBox="-427.9 720.8 161.1 231.4" style="enable-background:new -427.9 720.8 161.1 231.4;" xml:space="preserve">
<style type="text/css">
	.st0{fill:#FCA426;}
	.st1{fill:#E6951F;}
	.st2{fill:#3594E8;}
	.st3{fill:#FFFFFF;}
	.st4{fill:#2B2A29;}
	.st5{fill:#1E88E5;}
	.st6{fill:#1972BF;}
	.st7{fill:#0277BD;}
	.st8{opacity:0.1;fill:#231F20;}
	.st9{fill:#104666;}
</style>
<g id="Bird_1_">
	<path class="st0" d="M-347.3,883.9c-6.9,0-12.9-1.2-16.5-3c-3.3,0.3-7.8,1.5-10.2,3.6c-2.4,2.4-3.3,7.2,0.3,8.4
		c2.4,0.6,1.2-0.9,3.9-3.9c-0.3,2.1,0.3,4.2,2.4,4.8c2.7,0.6,0.9-1.2,5.1-5.1c-1.2,2.4-0.9,5.1,1.8,6c2.4,0.6,0.6-1.2,4.8-5.1
		c4.2-3.6,7.8-3.6,8.4-4.2V883.9z"/>
	<path class="st1" d="M-347.3,884c6.9,0,12.9-1.2,16.5-3c3.3,0.3,7.8,1.5,10.2,3.6c2.4,2.4,3.3,7.2-0.3,8.4
		c-2.4,0.6-1.2-0.9-3.9-3.9c0.3,2.1-0.3,4.2-2.4,4.8c-2.7,0.6-0.9-1.2-5.1-5.1c1.2,2.4,0.9,5.1-1.8,6c-2.4,0.6-0.6-1.2-4.8-5.1
		c-4.2-3.6-7.8-3.6-8.4-4.2V884z"/>
	<path class="st2" d="M-273.5,830.8c0.9-3.6,1.2-7.2,1.2-11.1c0-12.9-5.4-24.9-14.7-34.9c-3.3-12.6-9.3-23.4-17.1-32.2
		c-0.6-0.6-1.8-3-1.8-6.3c0-6,0.6-12.6,0.6-12.6s-6,11.1-13.2,8.4c-5.1-1.8-0.3-9.6-0.3-9.6s-3,1.8-6.9,3.6c-3.9,1.8-8.4,3.9-11.4,3
		c-5.7-1.8,3-18.3,3-18.3s-19.2,16.8-22.8,16.8c-5.1,0.3-4.5-7.5-4.5-7.5s-5.7,6-8.7,7.5c-17.1,8.4-30.6,25.5-36.7,47.2
		c-9,9.6-14.7,21.6-14.7,34.9c0,3.6,0.3,7.2,1.2,10.8c-3-3.9-5.4-8.4-7.5-12.9c2.7,19.2,14.4,36.1,30.4,45.4l1.8-5.1
		c11.4,16.8,28.8,27.6,48.4,27.6s37-10.8,48.4-27.6l1.8,5.1c16.2-9.3,27.9-25.8,30.3-45.4C-267.7,822.4-270.4,826.6-273.5,830.8z"/>
	<path class="st3" d="M-360.3,809.1c0-4.5-0.3-9.6-0.9-15.9c-0.9-11.4-3-24.3-13.5-24.3c-12,0-23.7,14.1-23.7,31.3
		c0,9.6,3.3,18.3,8.4,24C-380.7,816.6-370.8,811.5-360.3,809.1z"/>
	<path class="st4" d="M-390.3,802.8c0,6.9,2.4,12.9,6,17.1c7.5-5.1,15.6-9,24-10.8c0-4.5-0.3-9.6-0.9-15.9c-0.3-2.4-0.3-5.1-0.9-7.5
		c-3-3.6-6.9-5.7-11.4-5.7C-382.5,780-390.3,790.2-390.3,802.8z"/>
	<path class="st3" d="M-304.6,824.2c5.1-5.7,8.4-14.4,8.4-24c0-17.1-11.7-31.3-23.7-31.3c-10.5,0-12.6,12.9-13.5,24.3
		c-0.6,6.3-0.9,11.4-0.9,15.9C-323.8,811.5-313.9,816.6-304.6,824.2z"/>
	<path class="st4" d="M-321.1,780c-4.5,0-8.4,2.1-11.4,5.7c-0.6,2.4-0.6,5.1-0.9,7.5c-0.6,6.3-0.9,11.4-0.9,15.9
		c8.4,1.8,16.5,5.7,24,10.8c3.6-4.2,6-10.2,6-17.1C-304.3,790.2-312.1,780-321.1,780z"/>
	<ellipse class="st3" cx="-318.4" cy="791.4" rx="5.1" ry="5.4"/>
	<ellipse class="st3" cx="-369.9" cy="791.4" rx="5.1" ry="5.4"/>
	<path class="st3" d="M-320.9,854.8c0,0,0-6-3.9-9c-6.9-5.4-19.6-3.3-22.9,2.4c-12-6.9-21.7-1.2-24.7,3.6c-2.1,3.3-2.1,8.7-2.1,8.7
		s-7.5-1.2-9.6,5.1c-1.8,6,6.3,10.5,10.2,12.9c5.4,3,14.8,6.9,26.2,6.9c12.6,0,22.6-4.5,27.1-7.2c7.2-4.2,11.1-9,10.2-15.4
		C-311.2,854.2-319.4,854.8-320.9,854.8z M-347.1,879.8L-347.1,879.8L-347.1,879.8L-347.1,879.8L-347.1,879.8z"/>
	<path class="st0" d="M-340.8,809.1c-2.7-3-6.6-3-6.6-3l0,0c0,0-3.9,0-6.6,3c-3.6,2.4-6.9,5.7-2.7,9.9c0.3,0.3,0.3,0.3,0.6,0.6
		c1.2,7.5,5.7,14.7,8.7,18.9l0,0c3-4.2,7.5-11.4,8.7-18.9c0-0.3,0.3-0.3,0.6-0.6C-333.9,814.8-336.9,811.5-340.8,809.1z"/>
	<ellipse class="st4" cx="-351.9" cy="815.4" rx="1.2" ry="2.7"/>
	<ellipse class="st4" cx="-342.6" cy="815.4" rx="1.2" ry="2.7"/>
	<path class="st4" d="M-347.4,876.2l9.2-22.9c0.3-0.8,0.8-1.2,1.5-1.2c0.7,0,1.2,0.2,1.5,0.5c0.3,0.3,0.5,0.7,0.5,1.1
		c0,0.4,0,0.7-0.1,0.9l-9.7,23.4c-0.5,1.2-1.4,1.8-2.4,1.8h-0.9c-1.1,0-1.9-0.6-2.4-1.8l-3.7-9h3.7L-347.4,876.2z"/>
	<path class="st5" d="M-356.5,853.4L-356.5,853.4c-0.3-0.8-1.1-1.3-2-1.3c0,0,0,0,0,0h0h-4.8l0,0h0c-1,0-1.7,0.8-1.7,1.7
		s0.8,1.7,1.7,1.7c0,0,0,0,0,0l3.9,0l2,4.8l2.1,5.2h3.7L-356.5,853.4z"/>
	<path class="st6" d="M-284.3,811.5c0-1.2-0.3-4.2-0.3-4.5c0,0.6,0,1.2,0,2.1c0,18.6-5.4,35.5-14.4,48.7l1.8,5.1
		C-287.9,849.4-282.8,831.1-284.3,811.5z"/>
	<path class="st7" d="M-410.8,811.2c0-1.2,0.3-4.2,0.3-4.5c0,0.6,0,1.2,0,2.1c0,18.6,5.4,35.5,14.7,49l-1.8,5.1
		C-406.8,849.1-412,830.8-410.8,811.2z"/>
	<path class="st7" d="M-320.3,757.4c-0.3,0-0.9-0.3-1.2-0.3l0,0c-1.8-0.6-2.7-2.4-2.4-4.2c0.6-1.8,2.4-2.7,4.2-2.4
		c5.7,1.5,9.3,7.5,7.8,13.2C-313.6,761.1-316.7,758.7-320.3,757.4z"/>
	<path class="st7" d="M-383.1,764.1c-1.2-5.7,2.1-11.7,7.8-13.2c1.8-0.6,3.6,0.6,4.2,2.4c0.6,1.8-0.6,3.6-2.4,4.2l0,0
		c-0.3,0-0.9,0.3-1.2,0.3C-378.3,758.7-381.3,761.1-383.1,764.1z"/>
	<path class="st8" d="M-272.3,819.6c0-12.9-5.4-24.9-14.7-34.9c-3.3-12.6-9.3-23.4-17.1-32.2c-0.6-0.6-1.8-3-1.8-6.3
		c0-6,0.6-12.6,0.6-12.6s-6,11.1-13.2,8.4c-5.1-1.8-0.3-9.6-0.3-9.6s-3,1.8-6.9,3.6c-3.9,1.8-8.4,3.9-11.4,3c-5.7-1.8,3-18.3,3-18.3
		s-6.9,6-13.2,10.9v153.8c19.5,0,37-10.8,48.4-27.6l1.8,5.1c16.2-9.3,27.9-25.8,30.3-45.4c-0.9,4.8-3.6,9-6.6,13.2
		C-272.6,827.2-272.3,823.6-272.3,819.6z"/>
</g>
<g>
	<path class="st3" d="M-272.8,937.4c2-0.7,3.5-1.8,4.5-3.3c1-1.5,1.5-3.2,1.5-4.9c0-2.7-1-5-3-6.6c-2.1-1.8-5.3-2.6-9.5-2.6H-290
		c-0.6,0-1.1,0.2-1.5,0.6c-0.4,0.4-0.6,0.9-0.6,1.5c0,0,0,23.5,0,27.5c0,1.3,1,2.2,2.3,2.2c1.3,0,2.3-1,2.3-2.3c0-0.1,0-9.7,0-9.7h9
		c1.7,0,3.1-0.1,4.1,0.6c0.9,0.7,1.7,1.6,2.2,2.8c0.5,1.2,0.8,3,0.8,5.5v1.1c0,0.6,0.2,1.1,0.6,1.5c0.4,0.4,0.9,0.6,1.5,0.6
		c0.6,0,1.1-0.2,1.5-0.6c0.4-0.4,0.6-0.9,0.6-1.5v-1.9c0-2-0.3-3.9-1-5.7C-269.1,939.6-270.6,938-272.8,937.4z M-279.6,935.1h-7.9
		v-10.7h7.7c3,0,5.2,0.5,6.6,1.4c1.2,0.8,1.7,2.1,1.7,3.8c0,1.8-0.7,3.2-2.2,4.1C-275.2,934.7-277.1,935.1-279.6,935.1z"/>
	<path class="st3" d="M-300.5,919.9c0.5,0,1,0.2,1.4,0.6c0.4,0.4,0.6,0.8,0.6,1.4c0,0.5-0.2,1-0.6,1.4c-0.4,0.4-0.8,0.5-1.4,0.5
		h-9.2V950c0,0.6-0.2,1.1-0.6,1.4c-0.4,0.4-0.9,0.6-1.5,0.6s-1.1-0.2-1.4-0.6c-0.4-0.4-0.6-0.9-0.6-1.4v-26.2h-9.2
		c-0.5,0-1-0.2-1.4-0.5c-0.4-0.4-0.5-0.8-0.5-1.4s0.2-1,0.5-1.4c0.4-0.4,0.8-0.6,1.4-0.6H-300.5z"/>
	<path class="st3" d="M-330.3,947.8c0.6,0,1.1,0.2,1.5,0.6c0.4,0.4,0.6,0.9,0.6,1.5c0,0.6-0.2,1.1-0.6,1.4c-0.4,0.4-0.9,0.6-1.5,0.6
		h-16c-0.8,0-1.5-0.3-2-0.8c-0.6-0.6-0.8-1.2-0.8-2v-27c0-0.6,0.2-1.1,0.6-1.5c0.4-0.4,0.9-0.6,1.4-0.6c0.6,0,1.1,0.2,1.5,0.6
		c0.4,0.4,0.6,0.9,0.6,1.5v25.8H-330.3z"/>
	<path class="st3" d="M-361.8,919.9c0.6,0,1.1,0.2,1.5,0.6c0.4,0.4,0.6,0.9,0.6,1.5v17.5c0,3.9-1.4,7-4.2,9.3c-2.4,2-5.3,3-8.7,3
		c-3.4,0-6.3-1-8.8-3c-2.8-2.3-4.2-5.4-4.2-9.3V922c0-0.6,0.2-1.1,0.6-1.5c0.4-0.4,0.9-0.6,1.4-0.6c0.6,0,1.1,0.2,1.5,0.6
		c0.4,0.4,0.6,0.9,0.6,1.5v17.7c0,2.7,0.9,4.8,2.8,6.3c1.7,1.4,3.7,2.1,6.1,2.1c2.4,0,4.4-0.7,6.1-2.1c1.8-1.5,2.8-3.6,2.8-6.3V922
		c0-0.6,0.2-1.1,0.6-1.5C-362.8,920.1-362.4,919.9-361.8,919.9z"/>
	<path class="st3" d="M-407.5,947.8l10.6-26.4c0.4-0.9,1-1.4,1.7-1.4c0.8,0,1.3,0.2,1.7,0.6c0.4,0.4,0.5,0.8,0.5,1.3
		c0,0.5,0,0.8-0.1,1l-11.1,27c-0.6,1.4-1.6,2.1-2.8,2.1h-1c-1.2,0-2.2-0.7-2.8-2.1l-4.3-10.4h2.7h1.6L-407.5,947.8z"/>
	<path class="st9" d="M-418,921.4L-418,921.4c-0.4-0.9-1.2-1.5-2.3-1.5c0,0,0,0,0,0l0,0h-5.6l0,0c0,0,0,0,0,0c-1.1,0-2,0.9-2,2
		c0,1.1,0.9,2,2,2c0,0,0,0,0,0l4.5,0l2.3,5.5l2.5,6.1h4.3L-418,921.4z"/>
</g>
</svg>
